<?xml version="1.0" encoding="UTF-8" standalone="no"?><svg xmlns="http://www.w3.org/2000/svg" xmlns:xlink="http://www.w3.org/1999/xlink" contentStyleType="text/css" height="453px" preserveAspectRatio="none" style="width:362px;height:453px;background:#FFFFFF;" version="1.1" viewBox="0 0 362 453" width="362px" zoomAndPan="magnify"><defs/><g><!--MD5=[5de8fe2db6a01281b21af02e07313e50]
entity FooLib--><g id="elem_FooLib"><rect fill="#F1F1F1" height="65.2188" rx="2.5" ry="2.5" style="stroke:#181818;stroke-width:0.5;" width="125" x="107.5" y="7"/><rect fill="#F1F1F1" height="10" style="stroke:#181818;stroke-width:0.5;" width="15" x="212.5" y="12"/><rect fill="#F1F1F1" height="2" style="stroke:#181818;stroke-width:0.5;" width="4" x="210.5" y="14"/><rect fill="#F1F1F1" height="2" style="stroke:#181818;stroke-width:0.5;" width="4" x="210.5" y="18"/><text fill="#000000" font-family="sans-serif" font-size="14" font-style="italic" lengthAdjust="spacing" textLength="85" x="122.5" y="41.5332">«C++ library»</text><text fill="#000000" font-family="sans-serif" font-size="14" lengthAdjust="spacing" textLength="44" x="143" y="59.1426">FooLib</text></g><!--MD5=[b8c462f4eb65610abe197681905312dc]
entity FooAdapter--><g id="elem_FooAdapter"><rect fill="#F1F1F1" height="65.2188" rx="2.5" ry="2.5" style="stroke:#181818;stroke-width:0.5;" width="151" x="94.5" y="132"/><rect fill="#F1F1F1" height="10" style="stroke:#181818;stroke-width:0.5;" width="15" x="225.5" y="137"/><rect fill="#F1F1F1" height="2" style="stroke:#181818;stroke-width:0.5;" width="4" x="223.5" y="139"/><rect fill="#F1F1F1" height="2" style="stroke:#181818;stroke-width:0.5;" width="4" x="223.5" y="143"/><text fill="#000000" font-family="sans-serif" font-size="14" font-style="italic" lengthAdjust="spacing" textLength="111" x="109.5" y="166.5332">«C++/CLI library»</text><text fill="#000000" font-family="sans-serif" font-size="14" lengthAdjust="spacing" textLength="75" x="127.5" y="184.1426">FooAdapter</text></g><!--MD5=[c98c8225b021b2ca21f610d2fde782b8]
entity Foo.Core--><g id="elem_Foo.Core"><rect fill="#F1F1F1" height="65.2188" rx="2.5" ry="2.5" style="stroke:#181818;stroke-width:0.5;" width="117" x="111.5" y="257"/><rect fill="#F1F1F1" height="10" style="stroke:#181818;stroke-width:0.5;" width="15" x="208.5" y="262"/><rect fill="#F1F1F1" height="2" style="stroke:#181818;stroke-width:0.5;" width="4" x="206.5" y="264"/><rect fill="#F1F1F1" height="2" style="stroke:#181818;stroke-width:0.5;" width="4" x="206.5" y="268"/><text fill="#000000" font-family="sans-serif" font-size="14" font-style="italic" lengthAdjust="spacing" textLength="77" x="126.5" y="291.5332">«C# library»</text><text fill="#000000" font-family="sans-serif" font-size="14" lengthAdjust="spacing" textLength="60" x="135" y="309.1426">Foo.Core</text></g><!--MD5=[67639b862d3c26ee41bf5b0604a6f5b2]
entity FooServer--><g id="elem_FooServer"><rect fill="#F1F1F1" height="65.2188" rx="2.5" ry="2.5" style="stroke:#181818;stroke-width:0.5;" width="146" x="7" y="382"/><rect fill="#F1F1F1" height="10" style="stroke:#181818;stroke-width:0.5;" width="15" x="133" y="387"/><rect fill="#F1F1F1" height="2" style="stroke:#181818;stroke-width:0.5;" width="4" x="131" y="389"/><rect fill="#F1F1F1" height="2" style="stroke:#181818;stroke-width:0.5;" width="4" x="131" y="393"/><text fill="#000000" font-family="sans-serif" font-size="14" font-style="italic" lengthAdjust="spacing" textLength="106" x="22" y="416.5332">«C# executable»</text><text fill="#000000" font-family="sans-serif" font-size="14" lengthAdjust="spacing" textLength="67" x="41.5" y="434.1426">FooServer</text></g><!--MD5=[d540ff6416154d2e2ae671e26ef696b1]
entity FooClient--><g id="elem_FooClient"><rect fill="#F1F1F1" height="65.2188" rx="2.5" ry="2.5" style="stroke:#181818;stroke-width:0.5;" width="146" x="188" y="382"/><rect fill="#F1F1F1" height="10" style="stroke:#181818;stroke-width:0.5;" width="15" x="314" y="387"/><rect fill="#F1F1F1" height="2" style="stroke:#181818;stroke-width:0.5;" width="4" x="312" y="389"/><rect fill="#F1F1F1" height="2" style="stroke:#181818;stroke-width:0.5;" width="4" x="312" y="393"/><text fill="#000000" font-family="sans-serif" font-size="14" font-style="italic" lengthAdjust="spacing" textLength="106" x="203" y="416.5332">«C# executable»</text><text fill="#000000" font-family="sans-serif" font-size="14" lengthAdjust="spacing" textLength="61" x="225.5" y="434.1426">FooClient</text></g><!--MD5=[1ff6996f3977f8c02cf439efac3d4cce]
entity gRPC--><g id="elem_gRPC"><rect fill="#F1F1F1" height="65.2188" rx="2.5" ry="2.5" style="stroke:#181818;stroke-width:0.5;" width="92" x="264" y="257"/><rect fill="#F1F1F1" height="10" style="stroke:#181818;stroke-width:0.5;" width="15" x="336" y="262"/><rect fill="#F1F1F1" height="2" style="stroke:#181818;stroke-width:0.5;" width="4" x="334" y="264"/><rect fill="#F1F1F1" height="2" style="stroke:#181818;stroke-width:0.5;" width="4" x="334" y="268"/><text fill="#000000" font-family="sans-serif" font-size="14" font-style="italic" lengthAdjust="spacing" textLength="52" x="279" y="291.5332">«nuget»</text><text fill="#000000" font-family="sans-serif" font-size="14" lengthAdjust="spacing" textLength="37" x="286.5" y="309.1426">gRPC</text></g><!--MD5=[85f4aacad3eff69f08175fb9f8095a4d]
reverse link Foo.Core to FooServer--><g id="link_Foo.Core_FooServer"><path d="M143.61,326.56 C130.77,344.11 115.47,365.02 103.1,381.93 " fill="none" id="Foo.Core-backto-FooServer" style="stroke:#181818;stroke-width:1.0;"/><polygon fill="#181818" points="146.82,322.18,138.2812,327.088,143.8706,326.2175,144.7411,331.807,146.82,322.18" style="stroke:#181818;stroke-width:1.0;"/></g><!--MD5=[7f4ae068a2906871cfcc8fbe45d282aa]
reverse link Foo.Core to FooClient--><g id="link_Foo.Core_FooClient"><path d="M196.68,326.56 C209.66,344.11 225.13,365.02 237.64,381.93 " fill="none" id="Foo.Core-backto-FooClient" style="stroke:#181818;stroke-width:1.0;"/><polygon fill="#181818" points="193.43,322.18,195.5753,331.7924,196.4072,326.197,202.0025,327.0289,193.43,322.18" style="stroke:#181818;stroke-width:1.0;"/></g><!--MD5=[f729ed81b0b43a6916043ea9ebafaf0f]
reverse link FooAdapter to Foo.Core--><g id="link_FooAdapter_Foo.Core"><path d="M170,202.46 C170,219.82 170,240.31 170,256.93 " fill="none" id="FooAdapter-backto-Foo.Core" style="stroke:#181818;stroke-width:1.0;"/><polygon fill="#181818" points="170,197.18,166,206.18,170,202.18,174,206.18,170,197.18" style="stroke:#181818;stroke-width:1.0;"/></g><!--MD5=[da47e62ea2b60e1292fe71522b38ea87]
reverse link FooLib to FooAdapter--><g id="link_FooLib_FooAdapter"><path d="M170,77.46 C170,94.82 170,115.31 170,131.93 " fill="none" id="FooLib-backto-FooAdapter" style="stroke:#181818;stroke-width:1.0;"/><polygon fill="#181818" points="170,72.18,166,81.18,170,77.18,174,81.18,170,72.18" style="stroke:#181818;stroke-width:1.0;"/></g><!--MD5=[15a472fef3175aebd2c4c8ece0b06fa4]
link Foo.Core to gRPC--><g id="link_Foo.Core_gRPC"><path d="M228.52,289.5 C238.54,289.5 248.57,289.5 258.6,289.5 " fill="none" id="Foo.Core-to-gRPC" style="stroke:#181818;stroke-width:1.0;"/><polygon fill="#181818" points="263.85,289.5,254.85,285.5,258.85,289.5,254.85,293.5,263.85,289.5" style="stroke:#181818;stroke-width:1.0;"/></g><!--MD5=[24fb7d846a877ec8022c86e66172aa26]
@startuml component
' skinparam componentStyle uml2

component FooLib <<C++ library>>
component FooAdapter <<C++/CLI library>>
component Foo.Core <<C# library>>
component FooServer <<C# executable>>
component FooClient <<C# executable>>
component gRPC <<nuget>>

FooServer -up-> Foo.Core
FooClient -up-> Foo.Core
Foo.Core -up-> FooAdapter
FooAdapter -up-> FooLib
Foo.Core -> gRPC
@enduml

@startuml component

component FooLib <<C++ library>>
component FooAdapter <<C++/CLI library>>
component Foo.Core <<C# library>>
component FooServer <<C# executable>>
component FooClient <<C# executable>>
component gRPC <<nuget>>

FooServer -up-> Foo.Core
FooClient -up-> Foo.Core
Foo.Core -up-> FooAdapter
FooAdapter -up-> FooLib
Foo.Core -> gRPC
@enduml

PlantUML version 1.2022.5(Sat Apr 30 19:55:52 GMT+09:00 2022)
(GPL source distribution)
Java Runtime: Java(TM) SE Runtime Environment
JVM: Java HotSpot(TM) Client VM
Default Encoding: MS932
Language: ja
Country: JP
--></g></svg>